<svg xmlns="http://www.w3.org/2000/svg" width="192" height="206" viewBox="0 0 192 206">
  <g fill="none" fill-rule="evenodd">
    <path fill="#583C4C" d="M82.420206,112.304909 L102.048828,127.097836 L118.21105,114.917328 C135.392037,109.87087 152.895215,105.462551 170.720597,101.692375 C174.619394,100.867753 178.530599,103.038341 179.893566,106.783062 L190.751338,136.614531 C192.262479,140.766357 190.121781,145.357098 185.969955,146.868239 C185.460218,147.053768 184.932931,147.186972 184.396237,147.265793 C178.188246,148.177524 171.298651,149.72813 163.727452,151.917612 C168.468895,154.626438 173.192202,157.397648 177.897372,160.231242 C181.311163,162.287124 182.691301,166.542027 181.134218,170.210285 L168.730076,199.432622 C167.003716,203.499671 162.307231,205.397174 158.240182,203.670814 C157.740853,203.458861 157.264376,203.196672 156.818106,202.888293 C147.916491,196.737148 136.236838,190.593113 121.779147,184.456188 C116.39931,182.172582 109.29111,179.319594 100.454546,175.897222 C81.9507408,183.569172 59.1263991,193.234408 31.9815209,204.89293 C27.9218376,206.636536 23.217343,204.758982 21.4737389,200.699298 C21.4141674,200.560596 21.3585337,200.420236 21.3069045,200.278386 L9.54085057,167.951405 C8.27707976,164.479224 9.55569599,160.593264 12.6342837,158.54987 C17.2775496,155.46793 22.5986413,152.35773 28.5975587,149.219272 C21.4438286,146.628269 13.9271178,143.917688 6.04742638,141.087527 C1.88922555,139.594023 -0.270935311,135.012409 1.22257136,130.854209 C1.2735981,130.712141 1.32863568,130.571546 1.387618,130.432592 L14.8294186,98.765706 C16.2731774,95.3644234 19.8585161,93.3944267 23.5036442,93.9995745 C39.0332599,96.5777316 58.6721167,102.679511 82.4202146,112.304912 Z"/>
    <path fill="#F7956F" fill-rule="nonzero" d="M102.473311,4.23666675 C97.6148185,1.54689352 92.0422023,0 86.0968519,0 C75.6071412,0 66.2131468,4.80365561 60.0102212,12.3361163 C53.7779948,4.80365561 44.3928588,0 33.8888384,0 C27.9577977,0 22.3954027,1.54689352 17.5260074,4.23666675 C7.0785445,10.0510416 0,21.2298981 0,34.0768522 C0,37.7547473 0.595557171,41.2819932 1.67423795,44.5818958 C7.49148231,70.8592273 60.0102212,104 60.0102212,104 C60.0102212,104 112.494208,70.859912 118.319629,44.5818958 C119.39831,41.2819932 120,37.7499539 120,34.0768522 C120,21.2346915 112.921456,10.0592589 102.473311,4.23666675 Z" transform="translate(42.016)"/>
  </g>
</svg>
